<svg id="Autos" xmlns="http://www.w3.org/2000/svg" width="30" height="30" viewBox="0 0 30 30">
  <path id="Path_135" data-name="Path 135" d="M25.607,4.393A15,15,0,0,0,6.512,2.632a.586.586,0,0,0,.664.966A13.827,13.827,0,1,1,3.6,7.176a.586.586,0,0,0-.966-.664A15,15,0,0,0,25.607,25.607a15,15,0,0,0,0-21.213Z" fill="#021b9c"/>
  <path id="Path_136" data-name="Path 136" d="M62.07,74.141A12.071,12.071,0,0,0,73.476,58.12l0-.01a12.07,12.07,0,1,0-11.4,16.03Zm10.9-12.07q0,.421-.032.833a9.45,9.45,0,0,0-1.794.268,9.27,9.27,0,0,0-.685-4.731q1.013.173,2.018.388A10.861,10.861,0,0,1,72.969,62.07Zm-3.921-3.85a8.053,8.053,0,0,1,.848,5.356,9.537,9.537,0,0,0-5.569,6.138,8.033,8.033,0,0,1-4.515,0,9.536,9.536,0,0,0-5.569-6.138,8.054,8.054,0,0,1,.848-5.356,49.627,49.627,0,0,1,13.955,0ZM53,63.171A9.455,9.455,0,0,0,51.2,62.9q-.031-.413-.032-.833a10.861,10.861,0,0,1,.492-3.241q1-.215,2.018-.388A9.271,9.271,0,0,0,53,63.171Zm-1.637.917a8.331,8.331,0,0,1,7.663,8.294c0,.05,0,.1,0,.151A10.934,10.934,0,0,1,51.36,64.088Zm8.826,8.717c.006-.141.01-.282.01-.422a9.527,9.527,0,0,0-.1-1.387,9.222,9.222,0,0,0,3.953,0,9.528,9.528,0,0,0-.1,1.387c0,.14,0,.281.01.422a10.942,10.942,0,0,1-3.77,0Zm4.934-.271c0-.05,0-.1,0-.151a8.331,8.331,0,0,1,7.664-8.294A10.934,10.934,0,0,1,65.119,72.534ZM62.07,51.172a10.913,10.913,0,0,1,9.906,6.358,50.877,50.877,0,0,0-19.812,0A10.913,10.913,0,0,1,62.07,51.172Z" transform="translate(-47.07 -47.07)" fill="#021b9c"/>
  <path id="Path_137" data-name="Path 137" d="M206,208.93a2.93,2.93,0,1,0,2.93-2.93A2.933,2.933,0,0,0,206,208.93Zm2.93-1.758a1.758,1.758,0,1,1-1.758,1.758A1.76,1.76,0,0,1,208.93,207.172Z" transform="translate(-193.93 -193.93)" fill="#021b9c"/>
  <path id="Path_138" data-name="Path 138" d="M72.634,73.223a.586.586,0,1,0-.414-1h0a.586.586,0,0,0,.414,1Z" transform="translate(-67.827 -67.829)" fill="#021b9c"/>
</svg>
