<svg xmlns="http://www.w3.org/2000/svg" width="28.122" height="30.001" viewBox="0 0 28.122 30.001">
  <g id="beauty" transform="translate(-16.031)">
    <g id="Group_144" data-name="Group 144" transform="translate(27.773)">
      <g id="Group_143" data-name="Group 143" transform="translate(0)">
        <path id="Path_118" data-name="Path 118" d="M220.62,1.879A1.44,1.44,0,0,1,219.181.44a.44.44,0,1,0-.881,0,1.44,1.44,0,0,1-1.438,1.438.44.44,0,0,0,0,.881A1.44,1.44,0,0,1,218.3,4.2a.44.44,0,0,0,.881,0,1.44,1.44,0,0,1,1.438-1.438.44.44,0,1,0,0-.881Zm-1.879.961a2.34,2.34,0,0,0-.521-.521,2.34,2.34,0,0,0,.521-.521,2.34,2.34,0,0,0,.521.521A2.341,2.341,0,0,0,218.741,2.84Z" transform="translate(-216.422 0)" fill="#021b9c"/>
      </g>
    </g>
    <g id="Group_146" data-name="Group 146" transform="translate(37.636 6.576)">
      <g id="Group_145" data-name="Group 145">
        <path id="Path_119" data-name="Path 119" d="M388.948,114.1a1.44,1.44,0,0,1-1.438-1.438.44.44,0,0,0-.881,0,1.44,1.44,0,0,1-1.438,1.438.44.44,0,0,0,0,.881,1.44,1.44,0,0,1,1.438,1.438.44.44,0,0,0,.881,0,1.44,1.44,0,0,1,1.438-1.438.44.44,0,0,0,0-.881Zm-1.879.961a2.339,2.339,0,0,0-.521-.521.521.521,0,0,1,1.041,0A2.34,2.34,0,0,0,387.069,115.059Z" transform="translate(-384.75 -112.219)" fill="#021b9c"/>
      </g>
    </g>
    <g id="Group_148" data-name="Group 148" transform="translate(17.91 4.227)">
      <g id="Group_147" data-name="Group 147" transform="translate(0)">
        <path id="Path_120" data-name="Path 120" d="M52.291,74.019a1.44,1.44,0,0,1-1.438-1.438.44.44,0,0,0-.881,0,1.44,1.44,0,0,1-1.438,1.438.44.44,0,0,0,0,.881,1.44,1.44,0,0,1,1.438,1.438.44.44,0,0,0,.881,0A1.44,1.44,0,0,1,52.291,74.9a.44.44,0,1,0,0-.881Zm-1.879.961a2.34,2.34,0,0,0-.521-.521,2.34,2.34,0,0,0,.521-.521,2.34,2.34,0,0,0,.521.521A2.341,2.341,0,0,0,50.412,74.98Z" transform="translate(-48.093 -72.14)" fill="#021b9c"/>
      </g>
    </g>
    <g id="Group_150" data-name="Group 150" transform="translate(16.031 27.731)">
      <g id="Group_149" data-name="Group 149" transform="translate(0)">
        <path id="Path_121" data-name="Path 121" d="M16.471,473.257a.44.44,0,0,0-.44.44v1.389a.44.44,0,0,0,.881,0V473.7A.44.44,0,0,0,16.471,473.257Z" transform="translate(-16.031 -473.257)" fill="#021b9c"/>
      </g>
    </g>
    <g id="Group_152" data-name="Group 152" transform="translate(16.031 11.272)">
      <g id="Group_151" data-name="Group 151" transform="translate(0)">
        <path id="Path_122" data-name="Path 122" d="M23.086,195.846a.44.44,0,0,0-.069-.052v-.63a2.789,2.789,0,0,0-5.577,0v.63a.441.441,0,0,0-.068.052,4.212,4.212,0,0,0-1.341,3.076v8.552a.44.44,0,0,0,.881,0v-8.552a3.327,3.327,0,0,1,.528-1.794v4.142a2.322,2.322,0,0,0,2.319,2.319H20.7a2.322,2.322,0,0,0,2.319-2.319v-4.142a3.327,3.327,0,0,1,.528,1.794v11.742a.44.44,0,0,0,.881,0V198.921A4.212,4.212,0,0,0,23.086,195.846Zm-.949,5.424a1.44,1.44,0,0,1-1.438,1.438h-.939a1.44,1.44,0,0,1-1.438-1.438v-6.106a1.908,1.908,0,1,1,3.816,0v6.106Z" transform="translate(-16.031 -192.375)" fill="#021b9c"/>
      </g>
    </g>
    <g id="Group_154" data-name="Group 154" transform="translate(19.788 12.681)">
      <g id="Group_153" data-name="Group 153">
        <path id="Path_123" data-name="Path 123" d="M80.655,216.423H80.6a.44.44,0,1,0,0,.881h.059a.44.44,0,1,0,0-.881Z" transform="translate(-80.156 -216.423)" fill="#021b9c"/>
      </g>
    </g>
    <g id="Group_156" data-name="Group 156" transform="translate(20.728 14.09)">
      <g id="Group_155" data-name="Group 155">
        <path id="Path_124" data-name="Path 124" d="M96.687,240.47h-.059a.44.44,0,1,0,0,.881h.059a.44.44,0,1,0,0-.881Z" transform="translate(-96.188 -240.47)" fill="#021b9c"/>
      </g>
    </g>
    <g id="Group_158" data-name="Group 158" transform="translate(18.849 14.09)">
      <g id="Group_157" data-name="Group 157" transform="translate(0)">
        <path id="Path_125" data-name="Path 125" d="M64.624,240.47h-.059a.44.44,0,1,0,0,.881h.059a.44.44,0,1,0,0-.881Z" transform="translate(-64.125 -240.47)" fill="#021b9c"/>
      </g>
    </g>
    <g id="Group_160" data-name="Group 160" transform="translate(20.728 15.969)">
      <g id="Group_159" data-name="Group 159">
        <path id="Path_126" data-name="Path 126" d="M96.687,272.532h-.059a.44.44,0,0,0,0,.881h.059a.44.44,0,0,0,0-.881Z" transform="translate(-96.188 -272.532)" fill="#021b9c"/>
      </g>
    </g>
    <g id="Group_162" data-name="Group 162" transform="translate(18.849 15.969)">
      <g id="Group_161" data-name="Group 161" transform="translate(0)">
        <path id="Path_127" data-name="Path 127" d="M64.624,272.532h-.059a.44.44,0,0,0,0,.881h.059a.44.44,0,0,0,0-.881Z" transform="translate(-64.125 -272.532)" fill="#021b9c"/>
      </g>
    </g>
    <g id="Group_164" data-name="Group 164" transform="translate(20.728 17.848)">
      <g id="Group_163" data-name="Group 163">
        <path id="Path_128" data-name="Path 128" d="M96.687,304.6h-.059a.44.44,0,0,0,0,.881h.059a.44.44,0,0,0,0-.881Z" transform="translate(-96.188 -304.595)" fill="#021b9c"/>
      </g>
    </g>
    <g id="Group_166" data-name="Group 166" transform="translate(18.849 17.848)">
      <g id="Group_165" data-name="Group 165" transform="translate(0)">
        <path id="Path_129" data-name="Path 129" d="M64.624,304.6h-.059a.44.44,0,0,0,0,.881h.059a.44.44,0,0,0,0-.881Z" transform="translate(-64.125 -304.595)" fill="#021b9c"/>
      </g>
    </g>
    <g id="Group_168" data-name="Group 168" transform="translate(20.728 19.727)">
      <g id="Group_167" data-name="Group 167">
        <path id="Path_130" data-name="Path 130" d="M96.687,336.658h-.059a.44.44,0,0,0,0,.881h.059a.44.44,0,0,0,0-.881Z" transform="translate(-96.188 -336.658)" fill="#021b9c"/>
      </g>
    </g>
    <g id="Group_170" data-name="Group 170" transform="translate(18.849 19.727)">
      <g id="Group_169" data-name="Group 169" transform="translate(0)">
        <path id="Path_131" data-name="Path 131" d="M64.624,336.658h-.059a.44.44,0,0,0,0,.881h.059a.44.44,0,0,0,0-.881Z" transform="translate(-64.125 -336.658)" fill="#021b9c"/>
      </g>
    </g>
    <g id="Group_172" data-name="Group 172" transform="translate(33.409 19.727)">
      <g id="Group_171" data-name="Group 171" transform="translate(0)">
        <path id="Path_132" data-name="Path 132" d="M313.05,336.658a.44.44,0,0,0-.44.44v9.394a.44.44,0,1,0,.881,0V337.1A.44.44,0,0,0,313.05,336.658Z" transform="translate(-312.61 -336.658)" fill="#021b9c"/>
      </g>
    </g>
    <g id="Group_174" data-name="Group 174" transform="translate(25.894 6.576)">
      <g id="Group_173" data-name="Group 173" transform="translate(0)">
        <path id="Path_133" data-name="Path 133" d="M191.449,115.252a.438.438,0,0,0-.1-.072v-.172a2.789,2.789,0,0,0-5.577,0v.16a.428.428,0,0,0-.068.052,4.212,4.212,0,0,0-1.341,3.075V135.2a.44.44,0,1,0,.881,0V118.3a3.327,3.327,0,0,1,.528-1.794v4.612a2.322,2.322,0,0,0,2.319,2.319h.939a2.322,2.322,0,0,0,2.319-2.319V116.5a3.287,3.287,0,0,1,.528,1.8v5.695a.44.44,0,1,0,.881,0V118.3A4.161,4.161,0,0,0,191.449,115.252Zm-3.019-2.147-1.775,1.775A1.91,1.91,0,0,1,188.429,113.1Zm-1.78,3.016a.442.442,0,0,0,.057-.048l2.748-2.748a1.921,1.921,0,0,1,.786.786L186.65,117.7Zm3.816,4.994a1.44,1.44,0,0,1-1.438,1.438h-.346l1.784-1.784Zm0-1.585a.441.441,0,0,0-.047.04l-2.875,2.875a1.446,1.446,0,0,1-.786-.786l3.709-3.709Zm0-2.818c-.016.012-3.816,3.809-3.816,3.809v-1.582a.443.443,0,0,0,.057-.048l3.759-3.759Z" transform="translate(-184.36 -112.219)" fill="#021b9c"/>
      </g>
    </g>
    <g id="Group_176" data-name="Group 176" transform="translate(35.758 13.151)">
      <g id="Group_175" data-name="Group 175" transform="translate(0)">
        <path id="Path_134" data-name="Path 134" d="M359.778,227.471a.439.439,0,0,0-.1-.072v-.172a2.789,2.789,0,1,0-5.577,0v.176a.439.439,0,0,0-.113.078,4.162,4.162,0,0,0-1.3,3.033v10.333a.44.44,0,1,0,.881,0V230.515a3.287,3.287,0,0,1,.528-1.8v4.616a2.322,2.322,0,0,0,2.319,2.319h.939a2.322,2.322,0,0,0,2.319-2.319v-4.616a3.287,3.287,0,0,1,.528,1.8v10.333a.44.44,0,1,0,.881,0V230.515A4.161,4.161,0,0,0,359.778,227.471Zm-1.035-.685a1.92,1.92,0,0,1-1.834-1.467A1.911,1.911,0,0,1,358.743,226.786Zm-1.387,7.985h-.939a1.44,1.44,0,0,1-1.432-1.3,5.555,5.555,0,0,0,2.841.772,5.652,5.652,0,0,0,.675-.041A1.437,1.437,0,0,1,357.356,234.771Zm1.438-1.509a4.758,4.758,0,0,1-.969.1,4.684,4.684,0,0,1-2.846-.953h0v-1.486a4.662,4.662,0,0,0,3.816.87Zm0-2.374a3.791,3.791,0,0,1-3.756-1.1.438.438,0,0,0-.06-.054v-2.211a3.721,3.721,0,0,0,3.317,2.021,3.764,3.764,0,0,0,.5-.034v1.376Zm0-2.267a2.873,2.873,0,0,1-.5.044,2.84,2.84,0,0,1-2.843-2.7,1.92,1.92,0,0,1,.6-.458,2.806,2.806,0,0,0,2.716,2.155h.029v.954Z" transform="translate(-352.689 -224.438)" fill="#021b9c"/>
      </g>
    </g>
  </g>
</svg>
