<svg xmlns="http://www.w3.org/2000/svg" width="30" height="29.5" viewBox="0 0 30 29.5">
  <path id="Union_4" data-name="Union 4" d="M17623.5,6775.5a.5.5,0,0,1-.5-.5v-20.5h-5v20a.5.5,0,0,1-1,0V6754a.5.5,0,0,1,.5-.5h5.5v-7a.5.5,0,0,1,.5-.5h17a.5.5,0,0,1,.5.5v4h5.5a.5.5,0,0,1,.5.5v23.5a.5.5,0,0,1-1,0v-23h-5V6775a.5.5,0,0,1-.5.5Zm11.5-6.5a.5.5,0,0,1,.5.5v5h4.5V6747h-16v27.5h4.5v-5a.5.5,0,0,1,.5-.5Zm-2.5,5.5h2V6770h-2Zm-3,0h2V6770h-2Zm-8-1.5a.5.5,0,0,1-.5-.5v-.5a.5.5,0,0,1,.5-.5h.5a.5.5,0,0,1,.5.5v.5a.5.5,0,0,1-.5.5Zm-2,0a.5.5,0,0,1-.5-.5v-.5a.5.5,0,0,1,.5-.5h.5a.5.5,0,0,1,.5.5v.5a.5.5,0,0,1-.5.5Zm23-1.5a.5.5,0,0,1-.5-.5v-2a.5.5,0,0,1,.5-.5h2a.5.5,0,0,1,.5.5v2a.5.5,0,0,1-.5.5Zm.5-1h1v-1h-1Zm-21.5.5a.5.5,0,0,1-.5-.5v-.5a.5.5,0,0,1,.5-.5h.5a.5.5,0,0,1,.5.5v.5a.5.5,0,0,1-.5.5Zm-2,0a.5.5,0,0,1-.5-.5v-.5a.5.5,0,0,1,.5-.5h.5a.5.5,0,0,1,.5.5v.5a.5.5,0,0,1-.5.5Zm2-2a.5.5,0,0,1-.5-.5v-.5a.5.5,0,0,1,.5-.5h.5a.5.5,0,0,1,.5.5v.5a.5.5,0,0,1-.5.5Zm-2,0a.5.5,0,0,1-.5-.5v-.5a.5.5,0,0,1,.5-.5h.5a.5.5,0,0,1,.5.5v.5a.5.5,0,0,1-.5.5Zm23-1.5a.5.5,0,0,1-.5-.5v-2a.5.5,0,0,1,.5-.5h2a.5.5,0,0,1,.5.5v2a.5.5,0,0,1-.5.5Zm.5-1h1v-1h-1Zm-7.5.5a.5.5,0,0,1-.5-.5v-3a.5.5,0,0,1,.5-.5h3a.5.5,0,0,1,.5.5v3a.5.5,0,0,1-.5.5Zm.5-1h2v-2h-2Zm-5.5,1a.5.5,0,0,1-.5-.5v-3a.5.5,0,0,1,.5-.5h3a.5.5,0,0,1,.5.5v3a.5.5,0,0,1-.5.5Zm.5-1h2v-2h-2Zm-5.5,1a.5.5,0,0,1-.5-.5v-3a.5.5,0,0,1,.5-.5h3a.5.5,0,0,1,.5.5v3a.5.5,0,0,1-.5.5Zm.5-1h2v-2h-2Zm-4.5,1a.5.5,0,0,1-.5-.5v-.5a.5.5,0,0,1,.5-.5h.5a.5.5,0,0,1,.5.5v.5a.5.5,0,0,1-.5.5Zm-2,0a.5.5,0,0,1-.5-.5v-.5a.5.5,0,0,1,.5-.5h.5a.5.5,0,0,1,.5.5v.5a.5.5,0,0,1-.5.5Zm2-2a.5.5,0,0,1-.5-.5v-.5a.5.5,0,0,1,.5-.5h.5a.5.5,0,0,1,.5.5v.5a.5.5,0,0,1-.5.5Zm-2,0a.5.5,0,0,1-.5-.5v-.5a.5.5,0,0,1,.5-.5h.5a.5.5,0,0,1,.5.5v.5a.5.5,0,0,1-.5.5Zm23-1.5a.5.5,0,0,1-.5-.5v-2a.5.5,0,0,1,.5-.5h2a.5.5,0,0,1,.5.5v2a.5.5,0,0,1-.5.5Zm.5-1h1v-1h-1Zm-21.5.5a.5.5,0,0,1-.5-.5v-.5a.5.5,0,0,1,.5-.5h.5a.5.5,0,0,1,.5.5v.5a.5.5,0,0,1-.5.5Zm-2,0a.5.5,0,0,1-.5-.5v-.5a.5.5,0,0,1,.5-.5h.5a.5.5,0,0,1,.5.5v.5a.5.5,0,0,1-.5.5Zm16-1a.5.5,0,0,1-.5-.5v-3a.5.5,0,0,1,.5-.5h3a.5.5,0,0,1,.5.5v3a.5.5,0,0,1-.5.5Zm.5-1h2v-2h-2Zm-5.5,1a.5.5,0,0,1-.5-.5v-3a.5.5,0,0,1,.5-.5h3a.5.5,0,0,1,.5.5v3a.5.5,0,0,1-.5.5Zm.5-1h2v-2h-2Zm-5.5,1a.5.5,0,0,1-.5-.5v-3a.5.5,0,0,1,.5-.5h3a.5.5,0,0,1,.5.5v3a.5.5,0,0,1-.5.5Zm.5-1h2v-2h-2Zm-4.5,0a.5.5,0,0,1-.5-.5v-.5a.5.5,0,0,1,.5-.5h.5a.5.5,0,0,1,.5.5v.5a.5.5,0,0,1-.5.5Zm-2,0a.5.5,0,0,1-.5-.5v-.5a.5.5,0,0,1,.5-.5h.5a.5.5,0,0,1,.5.5v.5a.5.5,0,0,1-.5.5Zm23-1.5a.5.5,0,0,1-.5-.5v-2a.5.5,0,0,1,.5-.5h2a.5.5,0,0,1,.5.5v2a.5.5,0,0,1-.5.5Zm.5-1h1v-1h-1Zm-21.5.5a.5.5,0,0,1-.5-.5v-.5a.5.5,0,0,1,.5-.5h.5a.5.5,0,0,1,.5.5v.5a.5.5,0,0,1-.5.5Zm-2,0a.5.5,0,0,1-.5-.5v-.5a.5.5,0,0,1,.5-.5h.5a.5.5,0,0,1,.5.5v.5a.5.5,0,0,1-.5.5Zm16-2a.5.5,0,0,1-.5-.5v-3a.5.5,0,0,1,.5-.5h3a.5.5,0,0,1,.5.5v3a.5.5,0,0,1-.5.5Zm.5-1h2v-2h-2Zm-5.5,1a.5.5,0,0,1-.5-.5v-3a.5.5,0,0,1,.5-.5h3a.5.5,0,0,1,.5.5v3a.5.5,0,0,1-.5.5Zm.5-1h2v-2h-2Zm-5.5,1a.5.5,0,0,1-.5-.5v-3a.5.5,0,0,1,.5-.5h3a.5.5,0,0,1,.5.5v3a.5.5,0,0,1-.5.5Zm.5-1h2v-2h-2Zm-4.5,1a.5.5,0,0,1-.5-.5v-.5a.5.5,0,0,1,.5-.5h.5a.5.5,0,0,1,.5.5v.5a.5.5,0,0,1-.5.5Zm-2,0a.5.5,0,0,1-.5-.5v-.5a.5.5,0,0,1,.5-.5h.5a.5.5,0,0,1,.5.5v.5a.5.5,0,0,1-.5.5Zm23-1.5a.5.5,0,0,1-.5-.5v-2a.5.5,0,0,1,.5-.5h2a.5.5,0,0,1,.5.5v2a.5.5,0,0,1-.5.5Zm.5-1h1v-1h-1Zm-7.5-2.5a.5.5,0,0,1-.5-.5v-3a.5.5,0,0,1,.5-.5h3a.5.5,0,0,1,.5.5v3a.5.5,0,0,1-.5.5Zm.5-1h2v-2h-2Zm-5.5,1a.5.5,0,0,1-.5-.5v-3a.5.5,0,0,1,.5-.5h3a.5.5,0,0,1,.5.5v3a.5.5,0,0,1-.5.5Zm.5-1h2v-2h-2Zm-5.5,1a.5.5,0,0,1-.5-.5v-3a.5.5,0,0,1,.5-.5h3a.5.5,0,0,1,.5.5v3a.5.5,0,0,1-.5.5Zm.5-1h2v-2h-2Z" transform="translate(-17617 -6746.001)" fill="#021b9c"/>
</svg>
