<svg xmlns="http://www.w3.org/2000/svg" width="30" height="27.485" viewBox="0 0 30 27.485">
  <g id="real_estate" data-name="real estate" transform="translate(0 -21.461)">
    <g id="Group_195" data-name="Group 195" transform="translate(0 21.461)">
      <path id="Path_148" data-name="Path 148" d="M29.681,38.832a1.854,1.854,0,0,0-2.561-.5L23.291,40.9l-.011-7.975,1.33,1.246a1.514,1.514,0,0,0,1.039.411h0a1.526,1.526,0,0,0,1.107-.481,1.52,1.52,0,0,0-.07-2.148l-2.522-2.362a.428.428,0,0,0-.586.625L26.1,32.577a.664.664,0,0,1-.453,1.148h0a.661.661,0,0,1-.453-.179h0l-10.013-9.38a.428.428,0,0,0-.586,0L4.61,33.574a.664.664,0,0,1-.91-.966L14.433,22.5a.665.665,0,0,1,.909,0l6.279,5.882a.428.428,0,0,0,.586-.625l-6.279-5.882a1.522,1.522,0,0,0-2.081,0L10.41,25.11v-.577a.681.681,0,0,0-.681-.68h0l-2.458,0a.681.681,0,0,0-.68.682L6.6,28.7,3.113,31.985a1.52,1.52,0,0,0,1,2.626h.047A1.509,1.509,0,0,0,5.2,34.2l1.327-1.25.005,3.767a9.024,9.024,0,0,0-1.3-.1H4.5v-.257A1.565,1.565,0,0,0,2.934,34.8H1.563A1.565,1.565,0,0,0,0,36.362v6.71a.428.428,0,1,0,.856,0v-6.71a.708.708,0,0,1,.707-.707h1.37a.708.708,0,0,1,.707.707V46.5a.708.708,0,0,1-.707.707H1.563A.708.708,0,0,1,.856,46.5v-.749a.428.428,0,1,0-.856,0V46.5a1.565,1.565,0,0,0,1.563,1.563h1.37A1.565,1.565,0,0,0,4.5,46.5v-.058l6.271,2.375.035.012a2.991,2.991,0,0,0,.814.116,2.772,2.772,0,0,0,.433-.034l9.216-1.328h.006a4.511,4.511,0,0,0,2.138-.958l.016-.013,5.954-5.355A1.854,1.854,0,0,0,29.681,38.832ZM9.553,24.709l0,1.206L7.451,27.9l-.005-3.186Zm5.338.356,7.532,7.055.013,9.351-1.212.811-1.284-.072-.034-.341a2.712,2.712,0,0,0-2.179-2.4l-.008-5.563a.776.776,0,0,0-.775-.774h0l-4.081.006a.775.775,0,0,0-.774.776l.007,4.85a8.138,8.138,0,0,1-2.3-.912q-.135-.079-.273-.153l-.108-.056c-.056-.029-.111-.058-.168-.086L9.109,37.5l-.144-.068-.148-.065L8.68,37.3l-.154-.061-.137-.053-.153-.055-.144-.05-.147-.048-.158-.048L7.65,36.95,7.471,36.9l-.084-.022L7.38,32.141Zm1.979,14.3-3.582-.412-.337-.039L12.945,34l3.918-.006Zm11.938,1.253-5.948,5.349a3.654,3.654,0,0,1-1.72.769l-9.212,1.328h-.012a2.042,2.042,0,0,1-.864-.055L4.5,45.528V37.475H5.23a8.177,8.177,0,0,1,1.847.212l.067.016c.074.018.148.036.222.056l.019.005q.111.03.22.064l.039.012q.117.036.233.076l.024.008q.241.083.477.182l.026.011q.118.049.234.1l.006,0q.112.052.223.107l.026.013q.108.054.215.112l.04.022c.072.039.143.079.214.12a9,9,0,0,0,3.3,1.148h.011l4.8.552.079.013A1.857,1.857,0,0,1,19,41.643a1.882,1.882,0,0,1,.058.312l.019.192-8.992-.788a.428.428,0,1,0-.075.853l9.506.833h.013l1.793.1h.024l.025,0,.029,0,.038-.007.027-.006a.417.417,0,0,0,.04-.015l.022-.008a.423.423,0,0,0,.058-.032L23.1,42.056h0L27.6,39.048a.994.994,0,0,1,1.212,1.57Z" transform="translate(0 -21.461)" fill="#021b9c"/>
    </g>
  </g>
</svg>
