<svg xmlns="http://www.w3.org/2000/svg" width="30" height="30.001" viewBox="0 0 30 30.001">
  <path id="Union_3" data-name="Union 3" d="M17617,6761a15,15,0,1,1,15,15A15,15,0,0,1,17617,6761Zm1,0a14,14,0,1,0,14-14A14,14,0,0,0,17618,6761Zm12.822,9.929a.5.5,0,1,1,.119-.992,9.416,9.416,0,0,0,2.117,0h.018a.5.5,0,1,1,.1.992,9.8,9.8,0,0,1-2.352,0Zm3.645-1a1.568,1.568,0,0,1-.4-1.231l.357-8.034a2.581,2.581,0,0,1-1.328-1.8,5.907,5.907,0,0,1,.164-2.75l.318-1.058a2.3,2.3,0,0,1,4.35,0l.318,1.058a5.881,5.881,0,0,1,.164,2.75,2.59,2.59,0,0,1-1.328,1.8l.363,8.069a1.58,1.58,0,0,1-.4,1.2c-.035.04-.076.076-.111.111a1.738,1.738,0,0,1-2.467-.111Zm.066-14.584-.318,1.059a4.92,4.92,0,0,0-.139,2.285,1.587,1.587,0,0,0,1.037,1.191.5.5,0,0,1,.324.492l-.377,8.406a.606.606,0,0,0,.146.487.778.778,0,0,0,1.09,0,.593.593,0,0,0,.15-.452l-.381-8.441a.5.5,0,0,1,.322-.492,1.587,1.587,0,0,0,1.037-1.191,4.92,4.92,0,0,0-.139-2.285l-.322-1.059a1.293,1.293,0,0,0-.762-.766,1.344,1.344,0,0,0-.451-.08A1.3,1.3,0,0,0,17634.533,6755.346Zm-6.363,15.151a1.691,1.691,0,0,1-1.609-1.771l.43-8.53-1.346-1.342a.5.5,0,0,1-.146-.354V6754a.5.5,0,0,1,1,0v4.3l1.355,1.351a.49.49,0,0,1,.145.381l-.441,8.747a.669.669,0,0,0,.189.509,0,0,0,0,0,0,0,.7.7,0,0,0,1,0,.692.692,0,0,0,.189-.509l-.437-8.747a.49.49,0,0,1,.145-.381l1.352-1.351V6754a.5.5,0,0,1,1,0v4.5a.509.509,0,0,1-.146.354l-1.342,1.342.424,8.53a.768.768,0,0,1,0,.164,1.686,1.686,0,0,1-1.682,1.607Zm10.186-2.414a.5.5,0,0,1,0-.708,9,9,0,0,0,.531-12.17.5.5,0,0,1,.059-.708h0a.5.5,0,0,1,.7.062,10,10,0,0,1-.594,13.525.487.487,0,0,1-.354.146A.5.5,0,0,1,17638.355,6768.083Zm-13.441-.026a10,10,0,0,1-1-12.941c.006,0,.006,0,.01-.009a.5.5,0,1,1,.8.6,9,9,0,0,0,.908,11.643.5.5,0,0,1,0,.709.508.508,0,0,1-.354.146A.519.519,0,0,1,17624.914,6768.057ZM17628.5,6758v-4a.5.5,0,1,1,1,0v4a.5.5,0,1,1-1,0Zm-1.5,0v-4a.5.5,0,1,1,1,0v4a.5.5,0,1,1-1,0Zm1.646-5.39h.006Zm-.465-.323a.5.5,0,0,1,.293-.643,10.081,10.081,0,0,1,5.887-.363.5.5,0,1,1-.236.97,9.1,9.1,0,0,0-5.3.328.554.554,0,0,1-.172.031A.5.5,0,0,1,17628.182,6752.286Z" transform="translate(-17617 -6746.001)" fill="#021b9c"/>
</svg>
