<svg xmlns="http://www.w3.org/2000/svg" width="25.424" height="30" viewBox="0 0 25.424 30">
  <g id="Shopping" transform="translate(-15.359)">
    <g id="Group_178" data-name="Group 178" transform="translate(24.817)">
      <g id="Group_177" data-name="Group 177">
        <path id="Path_139" data-name="Path 139" d="M83.814,3.4a3.967,3.967,0,0,0-7.131-1.773.466.466,0,1,0,.753.55A3.034,3.034,0,0,1,82.89,3.534a.467.467,0,0,0,.462.4.5.5,0,0,0,.066,0A.467.467,0,0,0,83.814,3.4Z" transform="translate(-76.593)" fill="#021b9c"/>
      </g>
    </g>
    <g id="Group_180" data-name="Group 180" transform="translate(16.292 6.683)">
      <g id="Group_179" data-name="Group 179" transform="translate(0)">
        <path id="Path_140" data-name="Path 140" d="M45.669,46.932,44.133,44.6a.524.524,0,0,0-.439-.227H42.221a.469.469,0,1,0,0,.933H43.4l.922,1.4H23.6l.922-1.4h.542a.469.469,0,1,0,0-.933h-.832a.523.523,0,0,0-.439.227l-1.536,2.333a.432.432,0,0,0-.006.47.522.522,0,0,0,.446.237H45.23a.522.522,0,0,0,.446-.237A.431.431,0,0,0,45.669,46.932Z" transform="translate(-22.185 -44.372)" fill="#021b9c"/>
      </g>
    </g>
    <g id="Group_182" data-name="Group 182" transform="translate(29.752 2.615)">
      <g id="Group_181" data-name="Group 181" transform="translate(0)">
        <path id="Path_141" data-name="Path 141" d="M113.047,20.834a.466.466,0,0,0-.29-.208L106.4,19.138a.466.466,0,0,0-.561.348l-.48,2.051a.467.467,0,0,0,.909.212l.373-1.6,5.452,1.275-.857,3.663a.466.466,0,0,0,.348.56.472.472,0,0,0,.107.012.466.466,0,0,0,.454-.36l.963-4.117A.465.465,0,0,0,113.047,20.834Z" transform="translate(-105.343 -19.126)" fill="#021b9c"/>
      </g>
    </g>
    <g id="Group_184" data-name="Group 184" transform="translate(18.111 1.418)">
      <g id="Group_183" data-name="Group 183" transform="translate(0)">
        <path id="Path_142" data-name="Path 142" d="M44.654,14.382l-.425-3.6a.467.467,0,0,0-.518-.409l-7.8.923a.467.467,0,0,0-.408.518l.709,6a.467.467,0,0,0,.463.412.509.509,0,0,0,.056,0,.467.467,0,0,0,.408-.518l-.654-5.535,6.878-.813.37,3.133a.467.467,0,0,0,.927-.109Z" transform="translate(-35.494 -10.374)" fill="#021b9c"/>
      </g>
    </g>
    <g id="Group_186" data-name="Group 186" transform="translate(22.533 4.966)">
      <g id="Group_185" data-name="Group 185">
        <path id="Path_143" data-name="Path 143" d="M70.361,36.978l-.926-3.852a.466.466,0,0,0-.563-.344L61.355,34.59a.467.467,0,0,0-.345.563l.463,1.925a.467.467,0,1,0,.907-.218l-.354-1.472,6.61-1.589.817,3.4a.467.467,0,0,0,.908-.218Z" transform="translate(-60.997 -32.769)" fill="#021b9c"/>
      </g>
    </g>
    <g id="Group_188" data-name="Group 188" transform="translate(15.359 8.399)">
      <g id="Group_187" data-name="Group 187" transform="translate(0)">
        <path id="Path_144" data-name="Path 144" d="M39.765,61.941a.517.517,0,0,0-.508-.5H16.884a.517.517,0,0,0-.508.5L15.359,82.488a.538.538,0,0,0,.139.39.5.5,0,0,0,.369.164H40.274a.5.5,0,0,0,.369-.164.539.539,0,0,0,.139-.39ZM16.4,81.988l.965-19.493H38.774l.965,19.493Z" transform="translate(-15.359 -61.441)" fill="#021b9c"/>
      </g>
    </g>
    <g id="Group_190" data-name="Group 190" transform="translate(30.527 11.291)">
      <g id="Group_189" data-name="Group 189" transform="translate(0)">
        <path id="Path_145" data-name="Path 145" d="M117.452,75.093a1.4,1.4,0,1,0,1.4,1.4A1.4,1.4,0,0,0,117.452,75.093Zm0,1.867a.467.467,0,1,1,.467-.467A.467.467,0,0,1,117.452,76.96Z" transform="translate(-116.052 -75.093)" fill="#021b9c"/>
      </g>
    </g>
    <g id="Group_192" data-name="Group 192" transform="translate(22.814 11.291)">
      <g id="Group_191" data-name="Group 191">
        <path id="Path_146" data-name="Path 146" d="M66.252,75.093a1.4,1.4,0,1,0,1.4,1.4A1.4,1.4,0,0,0,66.252,75.093Zm0,1.867a.467.467,0,1,1,.467-.467A.467.467,0,0,1,66.252,76.96Z" transform="translate(-64.852 -75.093)" fill="#021b9c"/>
      </g>
    </g>
    <g id="Group_194" data-name="Group 194" transform="translate(24.104 13.068)">
      <g id="Group_193" data-name="Group 193" transform="translate(0)">
        <path id="Path_147" data-name="Path 147" d="M79.145,85.333h-.036a.467.467,0,0,0-.467.467.461.461,0,0,0,.036.18v2.387a3.033,3.033,0,0,1-6.066,0V85.8a.467.467,0,0,0-.933,0v2.566a3.966,3.966,0,0,0,7.933,0V85.8A.467.467,0,0,0,79.145,85.333Z" transform="translate(-71.679 -85.333)" fill="#021b9c"/>
      </g>
    </g>
  </g>
</svg>
