<svg id="africa_one_logo" data-name="africa one logo" xmlns="http://www.w3.org/2000/svg" width="212.762" height="52.35" viewBox="0 0 212.762 52.35">
  <path id="Union_2" data-name="Union 2" d="M17.932,37.931c-.5-.026-1.007-.237-1.225-1.157-.516-2.157-1.2-2.973-1.819-5.1a14.712,14.712,0,0,1-.489-2.394c1.122-.644,2.94-1.631,3.959-2.342a59.976,59.976,0,0,0,8.872-7.547,45.712,45.712,0,0,0,4.461-5.3c.336.014.659.026.993.054.684.065.736.131.5.763-.3.881-1.393,3.537-1.509,3.827-.128.328-3.1,3.129-3.185,3.221-.464.434-.374.684-.413,2.235-.013,1.04.323,2.342.336,3.38a2.011,2.011,0,0,1-.218.907,20.845,20.845,0,0,1-1.328,2.394,7.124,7.124,0,0,0-1.1,2.249,5.671,5.671,0,0,1-.94,1.972,22.681,22.681,0,0,1-3.663,2.788A8.332,8.332,0,0,1,19.577,38C19.079,38,18.521,37.977,17.932,37.931ZM197.442,32.42a10.112,10.112,0,0,1-2.579-7.154v-.119a10.176,10.176,0,0,1,2.6-7.258,8.57,8.57,0,0,1,6.564-2.855,7.912,7.912,0,0,1,6.228,2.776,9.783,9.783,0,0,1,2.5,6.811c0,.382,0,.684-.014.934h-16.04a8.012,8.012,0,0,0,2.126,5.629,7.043,7.043,0,0,0,5.3,2.169,8.162,8.162,0,0,0,6.152-2.775l1.224,1.223a9.224,9.224,0,0,1-7.389,3.354A8.821,8.821,0,0,1,197.442,32.42Zm1.521-13.532a7.09,7.09,0,0,0-2.205,4.984h14.057a7.2,7.2,0,0,0-2.012-4.984,6.314,6.314,0,0,0-4.772-2.051A7.032,7.032,0,0,0,198.963,18.888Zm-51.08,12.349A13.342,13.342,0,0,1,144,21.466a13.363,13.363,0,0,1,3.882-9.772,13.437,13.437,0,0,1,19.047,0,13.259,13.259,0,0,1,3.92,9.772,13.268,13.268,0,0,1-3.92,9.77,13.53,13.53,0,0,1-19.047,0Zm1.328-18.214a11.628,11.628,0,0,0-3.314,8.444,11.559,11.559,0,0,0,3.288,8.442,11.065,11.065,0,0,0,8.24,3.38,10.872,10.872,0,0,0,8.163-3.38,11.455,11.455,0,0,0,3.276-8.442,11.557,11.557,0,0,0-3.288-8.444,11.5,11.5,0,0,0-16.365,0Zm39.036,18.069V23.255c0-3.8-2.245-6.235-5.674-6.235-3.288,0-5.52,2.368-5.957,6.01-.027.263-.052.553-.065.841-.014.171-.014.342-.014.513V34.7h-1.87V15.534h1.87v3.7c.014-.012.014-.04.027-.052,1.1-2.63,3.211-3.945,6.436-3.945,4.281,0,7.118,2.959,7.118,7.641v8.06c0,1.565.374,2.171,1.457,2.171.117,0,.375-.04.774-.079v1.6a3.43,3.43,0,0,1-1.083.185C189.252,34.814,188.247,33.565,188.247,31.092Zm-81.992-.354a9.776,9.776,0,0,1-2.94-7.261,9.7,9.7,0,0,1,2.94-7.219,9.971,9.971,0,0,1,7.273-2.933,9.751,9.751,0,0,1,7.531,3.314L118.3,19.572a6.252,6.252,0,0,0-4.772-2.091,5.565,5.565,0,0,0-4.138,1.708,6.039,6.039,0,0,0-1.639,4.3,6.032,6.032,0,0,0,1.639,4.3,5.561,5.561,0,0,0,4.138,1.71,6.188,6.188,0,0,0,4.772-2.117l2.759,2.933a9.751,9.751,0,0,1-7.531,3.314A9.937,9.937,0,0,1,106.255,30.738Zm19.137-.04a10.114,10.114,0,0,1-2.682-7.154,9.955,9.955,0,0,1,2.682-7.114,8.808,8.808,0,0,1,6.706-2.893c3.03,0,5.3,1.368,6.008,3.2V13.956h4.786a16.114,16.114,0,0,0-1.729,7.523,15.544,15.544,0,0,0,3.714,10.468V33.21a6.6,6.6,0,0,1-2.205.3,4.825,4.825,0,0,1-2.6-.605,3.5,3.5,0,0,1-1.521-2.315c-1.3,2.014-3.47,3-6.448,3A8.829,8.829,0,0,1,125.392,30.7Zm3.315-11.337a5.856,5.856,0,0,0-1.561,4.183,5.856,5.856,0,0,0,1.561,4.183,5.336,5.336,0,0,0,3.985,1.67,5.513,5.513,0,0,0,4.062-1.67,5.643,5.643,0,0,0,1.675-4.183,5.643,5.643,0,0,0-1.675-4.183,5.512,5.512,0,0,0-4.062-1.668A5.335,5.335,0,0,0,128.707,19.36ZM94.727,28.633V13.956H99.2V27.424c0,1.485.3,2.01,1.3,2.01a3.8,3.8,0,0,0,.787-.079V33.2a6.344,6.344,0,0,1-2.245.3C96.183,33.5,94.727,31.867,94.727,28.633Zm-14.38,4.485V13.956h4.436v2.853a5.811,5.811,0,0,1,5.6-3.235,6.512,6.512,0,0,1,1.341.12v4.4a10.31,10.31,0,0,0-1.87-.185,4.751,4.751,0,0,0-5.069,5.13V33.118Zm-19.859,0L58.36,27.831H46.806l-2.128,5.287H39.751l10.857-26.5h3.947l10.859,26.5ZM48.25,23.911h8.641l-4.32-10.8ZM68.742,33.1V18.085H65.685V13.944h3.057V13c0-2.932.592-4.485,2.05-5.668a7.175,7.175,0,0,1,4.654-1.249,9.537,9.537,0,0,1,1.935.157v3.907a6.242,6.242,0,0,0-1.715-.185c-1.677,0-2.463.763-2.451,2.71v1.288h3.546V18.1H73.216V33.1Zm-37.6-.092a2.773,2.773,0,0,1-.749-.763,27.276,27.276,0,0,1,.31-3.288.745.745,0,0,1,.233-.513c.579-.736,1.444-1.551,2.05-2.262.1-.1.193-.263.489-.145.233.092.207.3.193.461a16.829,16.829,0,0,1-.554,3.274c-.168.448-.632,2.368-.837,2.722-.138.319-.72.513-1.1.513ZM5.269,31.75a4.965,4.965,0,0,1-1.509-.29,2.057,2.057,0,0,1-1.406-1.907,7.416,7.416,0,0,1,.787-3.722,28.68,28.68,0,0,1,4.514-6.839c.306-.364.611-.715.929-1.065h0c-.4.1-.8.223-1.2.342l-.014.014c-.477.131-.785.21-1.238.354-.361.119-.412.171-.709-.079-1.4-1.223-2.978-2.539-4.409-3.736-.245-.21-.31-.21-.271-.525.09-.921.424-3.064.424-3.064S.6,9.8.239,9C-.174,8.091-.006,8.157.394,7.6,1.7,5.842,3.823,3.172,5.372,1.2A1.218,1.218,0,0,1,6.106.792C8.183.5,10.259.24,12.349,0c.141-.014.361.014.4.131a7.468,7.468,0,0,0,1.187,1.895,9.235,9.235,0,0,0,1.92.827,10.613,10.613,0,0,1,1.445.632l0-.006-.006,0s0,0,.009-.008,0,0,0,0l.008-.006,0,0c.241-.3.47-.6.584-.712a5.407,5.407,0,0,1,1.754.117c1.328.159,2.8.3,4.127.408.541.052.7.223.9.75.155.368,2.373,6.364,2.373,6.364s.18.185.451.487c-.1.185-.22.356-.336.527a28.244,28.244,0,0,1-5.288,5.68,31.121,31.121,0,0,1-5.842,4.012,17.207,17.207,0,0,1-2.6,1.145h0a8.367,8.367,0,0,1-.318-2.525c.027-.422.04-.579-.309-.8-.464-.29-1.173-.763-1.677-1.118-.013-.012-.025-.012-.04-.026a.238.238,0,0,0-.063-.052.83.83,0,0,0-.1-.079,1.508,1.508,0,0,0-.31-.2l-.006,0c-.321.5-.613.963-.613.963l.013.026A6.48,6.48,0,0,0,8.97,21.229a1.742,1.742,0,0,0,.785,1.789,2.887,2.887,0,0,0,1.871.314,10,10,0,0,0,1.419-.262A15.818,15.818,0,0,0,16.359,21.7a32.677,32.677,0,0,0,5.97-4.09,29.138,29.138,0,0,0,5.418-5.825c.09-.132.18-.263.256-.4a7.739,7.739,0,0,0,1.238-2.932,1.841,1.841,0,0,0-1.392-2.342,5.281,5.281,0,0,0-2.308.132q-.176-.474-.348-.907c.567-.237,1.135-.461,1.7-.658a12.138,12.138,0,0,1,4.578-.867,2.992,2.992,0,0,1,2.14.815,2.778,2.778,0,0,1,.594,2.446A11.488,11.488,0,0,1,32.8,11.037a27.868,27.868,0,0,1-1.922,3.024,45.564,45.564,0,0,1-4.14,4.853A58.949,58.949,0,0,1,17.97,26.37c-.928.646-1.87,1.263-2.837,1.841a32.335,32.335,0,0,1-4.913,2.446,13.251,13.251,0,0,1-4.768,1.094C5.391,31.751,5.331,31.751,5.269,31.75ZM94.275,9.012a2.663,2.663,0,1,1,2.682,2.694A2.666,2.666,0,0,1,94.275,9.012Z" transform="translate(0 0)" fill="#fff"/>
  <path id="Path_14" data-name="Path 14" d="M4.857-8.426A4.377,4.377,0,0,1,6.516-8.1a4.576,4.576,0,0,1,1.418.9l-.58.732a3.638,3.638,0,0,0-1.146-.773,3.355,3.355,0,0,0-1.339-.281,3.449,3.449,0,0,0-1.723.442,3.312,3.312,0,0,0-1.239,1.2,3.186,3.186,0,0,0-.454,1.667,3.191,3.191,0,0,0,.454,1.664,3.3,3.3,0,0,0,1.242,1.2A3.454,3.454,0,0,0,4.869-.9,3.5,3.5,0,0,0,6.2-1.166,3.647,3.647,0,0,0,7.354-1.91l.592.662A4.974,4.974,0,0,1,6.492-.3a4.2,4.2,0,0,1-1.67.349A4.317,4.317,0,0,1,2.64-.521,4.277,4.277,0,0,1,1.063-2.068,4.113,4.113,0,0,1,.48-4.213a3.985,3.985,0,0,1,.589-2.118A4.317,4.317,0,0,1,2.66-7.86,4.394,4.394,0,0,1,4.857-8.426ZM11.9-6.346a3.376,3.376,0,0,1,1.655.4A2.878,2.878,0,0,1,14.7-4.816a3.29,3.29,0,0,1,.41,1.646,3.326,3.326,0,0,1-.41,1.664,2.918,2.918,0,0,1-1.14,1.134A3.338,3.338,0,0,1,11.9.035a3.354,3.354,0,0,1-1.658-.407A2.892,2.892,0,0,1,9.1-1.506,3.345,3.345,0,0,1,8.7-3.17,3.3,3.3,0,0,1,9.1-4.819a2.858,2.858,0,0,1,1.14-1.125A3.393,3.393,0,0,1,11.9-6.346Zm0,.85a2.314,2.314,0,0,0-1.172.3,2.077,2.077,0,0,0-.809.829,2.5,2.5,0,0,0-.287,1.21A2.53,2.53,0,0,0,9.92-1.939a2.092,2.092,0,0,0,.809.835A2.3,2.3,0,0,0,11.9-.8a2.3,2.3,0,0,0,1.172-.3,2.092,2.092,0,0,0,.809-.835,2.53,2.53,0,0,0,.287-1.219,2.5,2.5,0,0,0-.287-1.213,2.077,2.077,0,0,0-.812-.826A2.319,2.319,0,0,0,11.9-5.5Zm8.227-.861a2.351,2.351,0,0,1,1.767.653,2.474,2.474,0,0,1,.636,1.8V0h-.937V-3.65a1.754,1.754,0,0,0-.475-1.307A1.787,1.787,0,0,0,19.8-5.426a2.049,2.049,0,0,0-1.482.565A2.3,2.3,0,0,0,17.678-3.4V0h-.932V-6.322h.932v1.389A2.475,2.475,0,0,1,20.127-6.357Zm7.869,0a2.351,2.351,0,0,1,1.767.653A2.474,2.474,0,0,1,30.4-3.9V0h-.937V-3.65a1.754,1.754,0,0,0-.475-1.307,1.787,1.787,0,0,0-1.312-.469,2.049,2.049,0,0,0-1.482.565A2.3,2.3,0,0,0,25.547-3.4V0h-.932V-6.322h.932v1.389A2.475,2.475,0,0,1,28-6.357ZM35-6.346a2.692,2.692,0,0,1,2.244.952,3.776,3.776,0,0,1,.68,2.6H32.771a2.249,2.249,0,0,0,.741,1.471,2.272,2.272,0,0,0,1.55.545,2.819,2.819,0,0,0,1.084-.205,2.6,2.6,0,0,0,.873-.586l.516.551a3.106,3.106,0,0,1-1.11.779,3.651,3.651,0,0,1-1.433.275,3.293,3.293,0,0,1-1.641-.4,2.806,2.806,0,0,1-1.11-1.128,3.424,3.424,0,0,1-.4-1.664,3.367,3.367,0,0,1,.4-1.661,2.839,2.839,0,0,1,1.122-1.125A3.3,3.3,0,0,1,35-6.346ZM37.09-3.562a2.035,2.035,0,0,0-.618-1.447,2.1,2.1,0,0,0-1.491-.533,2.166,2.166,0,0,0-1.5.539,2.2,2.2,0,0,0-.706,1.441Zm4.992-2.783a3.574,3.574,0,0,1,1.345.246,2.982,2.982,0,0,1,1.04.686l-.516.662a2.622,2.622,0,0,0-1.881-.732,2.286,2.286,0,0,0-1.16.293,2.06,2.06,0,0,0-.8.823,2.5,2.5,0,0,0-.287,1.21,2.5,2.5,0,0,0,.287,1.213,2.126,2.126,0,0,0,.8.829,2.234,2.234,0,0,0,1.16.3,2.844,2.844,0,0,0,1.119-.211,2.224,2.224,0,0,0,.838-.609l.539.58a2.954,2.954,0,0,1-1.081.8,3.54,3.54,0,0,1-1.45.287,3.237,3.237,0,0,1-1.623-.4A2.856,2.856,0,0,1,39.3-1.494a3.384,3.384,0,0,1-.4-1.664,3.329,3.329,0,0,1,.407-1.661,2.868,2.868,0,0,1,1.134-1.125A3.336,3.336,0,0,1,42.082-6.346ZM49.529-.434a2.571,2.571,0,0,1-1.43.48A1.567,1.567,0,0,1,46.928-.4a1.858,1.858,0,0,1-.439-1.351V-5.361H45.58v-.756h.908v-1.67h.926v1.67l2-.018v.773h-2v3.439a1.251,1.251,0,0,0,.211.812.783.783,0,0,0,.633.249,1.875,1.875,0,0,0,1.008-.328ZM50.941,0V-6.322h.92V0Zm.451-8.783a.582.582,0,0,1,.439.185.641.641,0,0,1,.176.46.651.651,0,0,1-.176.463.577.577,0,0,1-.439.188.572.572,0,0,1-.437-.185.655.655,0,0,1-.173-.466.647.647,0,0,1,.173-.46A.572.572,0,0,1,51.393-8.783Zm6.129,2.426a2.351,2.351,0,0,1,1.767.653,2.474,2.474,0,0,1,.636,1.8V0h-.937V-3.65a1.754,1.754,0,0,0-.475-1.307A1.787,1.787,0,0,0,57.2-5.426a2.049,2.049,0,0,0-1.482.565A2.3,2.3,0,0,0,55.072-3.4V0h-.932V-6.322h.932v1.389A2.475,2.475,0,0,1,57.521-6.357Zm10,5.7a3.11,3.11,0,0,1-.4,1.6A2.667,2.667,0,0,1,66,1.983a3.62,3.62,0,0,1-1.667.366,4.258,4.258,0,0,1-2.59-.908l.428-.721a3.533,3.533,0,0,0,1,.595,3.335,3.335,0,0,0,1.131.208A2.313,2.313,0,0,0,65.956.935,2.061,2.061,0,0,0,66.58-.639v-.955a2.343,2.343,0,0,1-.935.979,2.777,2.777,0,0,1-1.392.34,2.87,2.87,0,0,1-1.494-.39,2.691,2.691,0,0,1-1.022-1.087,3.351,3.351,0,0,1-.366-1.582,3.294,3.294,0,0,1,.36-1.562,2.693,2.693,0,0,1,1.008-1.072,2.824,2.824,0,0,1,1.485-.39,2.8,2.8,0,0,1,1.4.34,2.457,2.457,0,0,1,.952.979V-6.322h.938Zm-3.1-.4a2.163,2.163,0,0,0,1.119-.29,2.03,2.03,0,0,0,.768-.8A2.365,2.365,0,0,0,66.58-3.3a2.4,2.4,0,0,0-.275-1.16,2.009,2.009,0,0,0-.768-.8,2.18,2.18,0,0,0-1.119-.287,2.168,2.168,0,0,0-1.113.287,2.05,2.05,0,0,0-.773.8A2.361,2.361,0,0,0,62.25-3.3a2.321,2.321,0,0,0,.281,1.146,2.077,2.077,0,0,0,.773.8A2.151,2.151,0,0,0,64.418-1.066Zm9.369-1.055L72.85,0H71.83L75.6-8.4h1L80.35,0H79.307l-.937-2.121Zm2.279-5.186L74.2-3.047h3.768Zm7.7-.768a1.117,1.117,0,0,0-.794.3,1.076,1.076,0,0,0-.319.826v.814h1.811v.773H82.652V0h-.926V-5.361h-.814v-.773h.814v-.691a2.236,2.236,0,0,1,.284-1.148,1.887,1.887,0,0,1,.744-.732,2.085,2.085,0,0,1,1-.246,2.338,2.338,0,0,1,1.359.445l-.387.756A1.642,1.642,0,0,0,83.766-8.074Zm2.59,3.152a2.4,2.4,0,0,1,.891-1.058,2.579,2.579,0,0,1,1.377-.378v.943a2.181,2.181,0,0,0-1.582.548,2.27,2.27,0,0,0-.686,1.509V0h-.932V-6.322h.932ZM89.883,0V-6.322h.92V0Zm.451-8.783a.582.582,0,0,1,.439.185.641.641,0,0,1,.176.46.651.651,0,0,1-.176.463.577.577,0,0,1-.439.188.572.572,0,0,1-.437-.185.655.655,0,0,1-.173-.466A.647.647,0,0,1,89.9-8.6.572.572,0,0,1,90.334-8.783Zm5.291,2.438A3.574,3.574,0,0,1,96.97-6.1a2.982,2.982,0,0,1,1.04.686l-.516.662a2.622,2.622,0,0,0-1.881-.732,2.286,2.286,0,0,0-1.16.293,2.06,2.06,0,0,0-.8.823,2.5,2.5,0,0,0-.287,1.21,2.5,2.5,0,0,0,.287,1.213,2.126,2.126,0,0,0,.8.829,2.234,2.234,0,0,0,1.16.3,2.844,2.844,0,0,0,1.119-.211,2.224,2.224,0,0,0,.838-.609l.539.58a2.954,2.954,0,0,1-1.081.8,3.54,3.54,0,0,1-1.45.287,3.237,3.237,0,0,1-1.623-.4,2.856,2.856,0,0,1-1.11-1.128,3.384,3.384,0,0,1-.4-1.664,3.329,3.329,0,0,1,.407-1.661,2.868,2.868,0,0,1,1.134-1.125A3.336,3.336,0,0,1,95.625-6.346Zm7.758,5.373a2.693,2.693,0,0,1-2.314,1.02A2.43,2.43,0,0,1,99.94-.205,1.847,1.847,0,0,1,99.185-.9a1.876,1.876,0,0,1-.267-.987A1.577,1.577,0,0,1,99.542-3.2a2.824,2.824,0,0,1,1.743-.5h2.074v-.369a1.387,1.387,0,0,0-.431-1.093,1.842,1.842,0,0,0-1.263-.384,3.549,3.549,0,0,0-2,.721l-.393-.686a5.868,5.868,0,0,1,1.242-.647,3.988,3.988,0,0,1,1.336-.2,2.573,2.573,0,0,1,1.8.574,2.1,2.1,0,0,1,.642,1.605L104.3,0h-.914Zm-2.133.205a2.42,2.42,0,0,0,1.371-.378,1.773,1.773,0,0,0,.75-1.04v-.756H101.4q-1.605,0-1.605,1.02a1.018,1.018,0,0,0,.4.841A1.655,1.655,0,0,0,101.25-.768Z" transform="translate(107 50)" fill="#fff"/>
</svg>
