<svg xmlns="http://www.w3.org/2000/svg" width="45" height="36" viewBox="0 0 45 36">
  <path id="Icon_awesome-business-time" data-name="Icon awesome-business-time" d="M34.875,15.75A10.125,10.125,0,1,0,45,25.875,10.12,10.12,0,0,0,34.875,15.75Zm4.5,10.567a.685.685,0,0,1-.683.683H34.433a.685.685,0,0,1-.683-.683V20.933a.685.685,0,0,1,.683-.683h.884a.685.685,0,0,1,.683.683V24.75h2.692a.685.685,0,0,1,.683.683ZM34.875,13.5c.38,0,.754.023,1.125.057V10.125A3.46,3.46,0,0,0,32.625,6.75H27V3.375A3.46,3.46,0,0,0,23.625,0H12.375A3.46,3.46,0,0,0,9,3.375V6.75H3.375A3.46,3.46,0,0,0,0,10.125V15.75H27.782A12.3,12.3,0,0,1,34.875,13.5ZM22.5,6.75h-9V4.5h9Zm.48,15.75H14.625A1.125,1.125,0,0,1,13.5,21.375V18H0V28.125A3.46,3.46,0,0,0,3.375,31.5H23.866a12.209,12.209,0,0,1-.887-9Z" fill="#021b9c"/>
</svg>
