<svg xmlns="http://www.w3.org/2000/svg" width="16" height="14.609" viewBox="0 0 16 14.609">
  <path id="Icon_material-add-a-photo" data-name="Icon material-add-a-photo" d="M2.087,3.587V1.5H3.478V3.587H5.565V4.978H3.478V7.065H2.087V4.978H0V3.587ZM4.174,7.761V5.674H6.261V3.587h4.87L12.4,4.978h2.205A1.4,1.4,0,0,1,16,6.37v8.348a1.4,1.4,0,0,1-1.391,1.391H3.478a1.4,1.4,0,0,1-1.391-1.391V7.761Zm4.87,6.261a3.478,3.478,0,1,0-3.478-3.478A3.48,3.48,0,0,0,9.043,14.022ZM6.817,10.543A2.226,2.226,0,1,0,9.043,8.317,2.224,2.224,0,0,0,6.817,10.543Z" transform="translate(0 -1.5)" fill="#fff"/>
</svg>
