<svg xmlns="http://www.w3.org/2000/svg" width="17.524" height="16" viewBox="0 0 17.524 16">
  <path id="Icon_material-add-a-photo" data-name="Icon material-add-a-photo" d="M2.286,3.786V1.5H3.81V3.786H6.1V5.31H3.81V7.6H2.286V5.31H0V3.786ZM4.571,8.357V6.071H6.857V3.786H12.19L13.585,5.31H16a1.528,1.528,0,0,1,1.524,1.524v9.143A1.528,1.528,0,0,1,16,17.5H3.81a1.528,1.528,0,0,1-1.524-1.524V8.357ZM9.9,15.214A3.81,3.81,0,1,0,6.1,11.4,3.811,3.811,0,0,0,9.9,15.214ZM7.467,11.4A2.438,2.438,0,1,0,9.9,8.967,2.435,2.435,0,0,0,7.467,11.4Z" transform="translate(0 -1.5)" fill="#021b9c"/>
</svg>
