<svg xmlns="http://www.w3.org/2000/svg" width="34.178" height="16" viewBox="0 0 34.178 16">
  <path id="Icon_payment-apple-pay" data-name="Icon payment-apple-pay" d="M11.327,23.467a2.772,2.772,0,0,0,1.728,2.524,6.732,6.732,0,0,1-.891,1.774c-.537.76-1.094,1.517-1.971,1.533-.862.015-1.139-.5-2.125-.5s-1.294.479-2.11.511c-.847.031-1.492-.822-2.033-1.579-1.106-1.549-1.951-4.376-.816-6.284a3.168,3.168,0,0,1,2.664-1.563c.832-.015,1.617.542,2.125.542s1.462-.67,2.465-.572a3.043,3.043,0,0,1,2.355,1.237,2.817,2.817,0,0,0-1.391,2.373Zm-1.62-4.635a2.693,2.693,0,0,0,.67-1.991,2.919,2.919,0,0,0-1.9.945A2.561,2.561,0,0,0,7.8,19.716a2.419,2.419,0,0,0,1.91-.883Zm6.508-.9q.5-.084,1.1-.152a12,12,0,0,1,1.327-.067,5.793,5.793,0,0,1,1.783.244,3.219,3.219,0,0,1,1.232.7,2.87,2.87,0,0,1,.646.959,3.292,3.292,0,0,1,.232,1.279,3.47,3.47,0,0,1-.319,1.532,3.188,3.188,0,0,1-.87,1.1,3.677,3.677,0,0,1-1.31.665,5.946,5.946,0,0,1-1.654.219,6.654,6.654,0,0,1-1.361-.118v4.847h-.81V17.93Zm.811,5.655a3.6,3.6,0,0,0,.655.117q.362.033.775.034a3.666,3.666,0,0,0,2.4-.707,2.534,2.534,0,0,0,.853-2.07,2.72,2.72,0,0,0-.224-1.144,2.059,2.059,0,0,0-.637-.8,2.938,2.938,0,0,0-.982-.471,4.634,4.634,0,0,0-1.258-.16,9.147,9.147,0,0,0-.948.042q-.4.042-.637.093v5.066ZM28.979,27.22q0,.488.017.976a6.23,6.23,0,0,0,.1.942h-.758l-.12-1.144h-.035a2.88,2.88,0,0,1-.4.471,3.089,3.089,0,0,1-.56.429,2.992,2.992,0,0,1-.724.311,3.174,3.174,0,0,1-.887.118,2.705,2.705,0,0,1-1.06-.193,2.175,2.175,0,0,1-.749-.5,2.056,2.056,0,0,1-.439-.715,2.356,2.356,0,0,1-.146-.808,2.46,2.46,0,0,1,1.232-2.2,6.91,6.91,0,0,1,3.713-.74v-.219a5.089,5.089,0,0,0-.061-.732,2.272,2.272,0,0,0-.267-.782,1.708,1.708,0,0,0-.62-.623,2.14,2.14,0,0,0-1.12-.252,3.722,3.722,0,0,0-2.015.606l-.259-.589a3.862,3.862,0,0,1,1.137-.53,4.617,4.617,0,0,1,1.223-.16,3,3,0,0,1,1.4.286,2.316,2.316,0,0,1,.853.74,2.728,2.728,0,0,1,.422,1.018,5.73,5.73,0,0,1,.112,1.119V27.22Zm-.81-2.406a11.485,11.485,0,0,0-1.37.05,5.068,5.068,0,0,0-1.318.295,2.524,2.524,0,0,0-1,.665,1.664,1.664,0,0,0-.4,1.161,1.528,1.528,0,0,0,.5,1.262,1.737,1.737,0,0,0,1.12.4,2.773,2.773,0,0,0,.9-.135,2.352,2.352,0,0,0,.689-.362,2.315,2.315,0,0,0,.491-.513,2.4,2.4,0,0,0,.3-.589,2.252,2.252,0,0,0,.086-.488v-1.75Zm2.394-3.753,2.1,5.251q.172.438.327.9t.276.85H33.3q.12-.37.276-.833t.344-.951l1.965-5.217h.861l-2.394,5.924q-.362.942-.681,1.708t-.646,1.38a9.86,9.86,0,0,1-.663,1.086,4.548,4.548,0,0,1-.75.825,4.088,4.088,0,0,1-.887.614q-.405.194-.543.244l-.276-.656a6.857,6.857,0,0,0,.689-.353,3.742,3.742,0,0,0,.741-.572,6.881,6.881,0,0,0,.681-.8,5.577,5.577,0,0,0,.663-1.2,1.324,1.324,0,0,0,.1-.353.994.994,0,0,0-.1-.353L29.7,21.06h.862Z" transform="translate(-2.571 -16.841)" fill="#666"/>
</svg>
