<svg xmlns="http://www.w3.org/2000/svg" width="24.427" height="30" viewBox="0 0 24.427 30">
  <path id="apple-black" d="M20.4,15.938a6.631,6.631,0,0,0,4.026,6.07,16.418,16.418,0,0,1-2.076,4.267C21.1,28.1,19.8,29.923,17.759,29.961,15.75,30,15.1,28.77,12.808,28.77S9.794,29.923,7.893,30c-1.973.075-3.476-1.976-4.737-3.8C.58,22.476-1.389,15.676,1.255,11.086a7.344,7.344,0,0,1,6.208-3.76c1.938-.037,3.767,1.3,4.951,1.3s3.406-1.612,5.743-1.375a7.008,7.008,0,0,1,5.487,2.976A6.785,6.785,0,0,0,20.4,15.938M16.626,4.79A6.608,6.608,0,0,0,18.186,0a6.725,6.725,0,0,0-4.419,2.274,6.279,6.279,0,0,0-1.591,4.64,5.564,5.564,0,0,0,4.45-2.124" transform="translate(0)"/>
</svg>
