<svg xmlns="http://www.w3.org/2000/svg" width="21.556" height="18" viewBox="0 0 21.556 18">
  <g id="Icon_feather-camera" data-name="Icon feather-camera" transform="translate(-0.5 -3.5)">
    <path id="Path_150" data-name="Path 150" d="M21.056,18.722A1.778,1.778,0,0,1,19.278,20.5h-16A1.778,1.778,0,0,1,1.5,18.722V8.944A1.778,1.778,0,0,1,3.278,7.167H6.833L8.611,4.5h5.333l1.778,2.667h3.556a1.778,1.778,0,0,1,1.778,1.778Z" fill="none" stroke="#666" stroke-linecap="round" stroke-linejoin="round" stroke-width="2"/>
    <path id="Path_151" data-name="Path 151" d="M19.111,17.056A3.556,3.556,0,1,1,15.556,13.5,3.556,3.556,0,0,1,19.111,17.056Z" transform="translate(-4.278 -3.667)" fill="none" stroke="#666" stroke-linecap="round" stroke-linejoin="round" stroke-width="2"/>
  </g>
</svg>
