<svg xmlns="http://www.w3.org/2000/svg" width="16" height="14" viewBox="0 0 16 14">
  <path id="Icon_awesome-camera" data-name="Icon awesome-camera" d="M16,5.75v9a1.5,1.5,0,0,1-1.5,1.5H1.5A1.5,1.5,0,0,1,0,14.75v-9a1.5,1.5,0,0,1,1.5-1.5H4.25l.384-1.028a1.5,1.5,0,0,1,1.4-.972H9.959a1.5,1.5,0,0,1,1.4.972L11.75,4.25H14.5A1.5,1.5,0,0,1,16,5.75Zm-4.25,4.5A3.75,3.75,0,1,0,8,14,3.753,3.753,0,0,0,11.75,10.25Zm-1,0A2.75,2.75,0,1,1,8,7.5,2.754,2.754,0,0,1,10.75,10.25Z" transform="translate(0 -2.25)" fill="#f5b60e"/>
</svg>
