<svg xmlns="http://www.w3.org/2000/svg" width="12" height="16" viewBox="0 0 12 16">
  <path id="Icon_awesome-clipboard-list" data-name="Icon awesome-clipboard-list" d="M10.5,2H8A2,2,0,0,0,4,2H1.5A1.5,1.5,0,0,0,0,3.5v11A1.5,1.5,0,0,0,1.5,16h9A1.5,1.5,0,0,0,12,14.5V3.5A1.5,1.5,0,0,0,10.5,2ZM3,13.25a.75.75,0,1,1,.75-.75A.748.748,0,0,1,3,13.25Zm0-3a.75.75,0,1,1,.75-.75A.748.748,0,0,1,3,10.25Zm0-3a.75.75,0,1,1,.75-.75A.748.748,0,0,1,3,7.25Zm3-6A.75.75,0,1,1,5.25,2,.748.748,0,0,1,6,1.25Zm4,11.5a.251.251,0,0,1-.25.25H5.25A.251.251,0,0,1,5,12.75v-.5A.251.251,0,0,1,5.25,12h4.5a.251.251,0,0,1,.25.25Zm0-3a.251.251,0,0,1-.25.25H5.25A.251.251,0,0,1,5,9.75v-.5A.251.251,0,0,1,5.25,9h4.5a.251.251,0,0,1,.25.25Zm0-3A.251.251,0,0,1,9.75,7H5.25A.251.251,0,0,1,5,6.75v-.5A.251.251,0,0,1,5.25,6h4.5a.251.251,0,0,1,.25.25Z" fill="#434343"/>
</svg>
