<svg xmlns="http://www.w3.org/2000/svg" width="18" height="18" viewBox="0 0 18 18">
  <g id="Icon_feather-copy" data-name="Icon feather-copy" transform="translate(-2 -2)">
    <path id="Path_243" data-name="Path 243" d="M15.1,13.5h7.2a1.6,1.6,0,0,1,1.6,1.6v7.2a1.6,1.6,0,0,1-1.6,1.6H15.1a1.6,1.6,0,0,1-1.6-1.6V15.1A1.6,1.6,0,0,1,15.1,13.5Z" transform="translate(-4.9 -4.9)" fill="none" stroke="#d7d7d7" stroke-linecap="round" stroke-linejoin="round" stroke-width="2"/>
    <path id="Path_244" data-name="Path 244" d="M5.4,13.4H4.6A1.6,1.6,0,0,1,3,11.8V4.6A1.6,1.6,0,0,1,4.6,3h7.2a1.6,1.6,0,0,1,1.6,1.6v.8" fill="none" stroke="#d7d7d7" stroke-linecap="round" stroke-linejoin="round" stroke-width="2"/>
  </g>
</svg>
