<svg xmlns="http://www.w3.org/2000/svg" width="21.333" height="16" viewBox="0 0 21.333 16">
  <path id="Icon_metro-credit-card" data-name="Icon metro-credit-card" d="M21.9,5.784H4.571a2.006,2.006,0,0,0-2,2v12a2.006,2.006,0,0,0,2,2H21.9a2.006,2.006,0,0,0,2-2v-12a2.006,2.006,0,0,0-2-2ZM4.571,7.117H21.9a.676.676,0,0,1,.667.667v2H3.9v-2a.676.676,0,0,1,.667-.667ZM21.9,20.451H4.571a.676.676,0,0,1-.667-.667v-6H22.571v6a.676.676,0,0,1-.667.667Zm-16.667-4H6.571v2.667H5.237Zm2.667,0H9.237v2.667H7.9Zm2.667,0H11.9v2.667H10.571Z" transform="translate(-2.571 -5.784)" fill="#666"/>
</svg>
