<svg xmlns="http://www.w3.org/2000/svg" width="16" height="16" viewBox="0 0 16 16">
  <path id="Icon_awesome-envelope-open" data-name="Icon awesome-envelope-open" d="M16,14.5A1.5,1.5,0,0,1,14.5,16H1.5A1.5,1.5,0,0,1,0,14.5V6.273a1.5,1.5,0,0,1,.575-1.18c.779-.61,1.422-1.105,5.131-3.8C6.232.912,7.275-.011,8,0c.725-.011,1.769.912,2.294,1.295,3.709,2.692,4.353,3.187,5.131,3.8A1.5,1.5,0,0,1,16,6.273ZM13.948,8.356a.25.25,0,0,0-.354-.06c-.714.527-1.733,1.272-3.3,2.409C9.768,11.089,8.725,12.011,8,12c-.725.011-1.767-.911-2.294-1.295C4.14,9.569,3.12,8.824,2.406,8.3a.25.25,0,0,0-.354.06l-.283.412a.25.25,0,0,0,.057.343c.715.528,1.733,1.272,3.291,2.4C5.75,11.975,6.883,13.007,8,13c1.116.008,2.249-1.024,2.883-1.487,1.558-1.131,2.576-1.874,3.291-2.4a.25.25,0,0,0,.057-.343l-.283-.412Z" fill="#80858a"/>
</svg>
