<svg id="google-icon" xmlns="http://www.w3.org/2000/svg" width="29.4" height="30" viewBox="0 0 29.4 30">
  <path id="Path_165" data-name="Path 165" d="M144.95,109.828a12.854,12.854,0,0,0-.317-3.067H130.55v5.567h8.267a7.33,7.33,0,0,1-3.067,4.867l-.028.186,4.453,3.45.309.031a14.666,14.666,0,0,0,4.467-11.033" transform="translate(-115.55 -94.494)" fill="#4285f4"/>
  <path id="Path_166" data-name="Path 166" d="M27.325,168.4a14.3,14.3,0,0,0,9.933-3.633L32.525,161.1a8.878,8.878,0,0,1-5.2,1.5,9.03,9.03,0,0,1-8.533-6.233l-.176.015-4.63,3.583-.061.168a14.989,14.989,0,0,0,13.4,8.267" transform="translate(-12.325 -138.403)" fill="#34a853"/>
  <path id="Path_167" data-name="Path 167" d="M6.467,81.085a9.234,9.234,0,0,1-.5-2.967,9.7,9.7,0,0,1,.483-2.967l-.008-.2L1.753,71.312l-.153.073a14.968,14.968,0,0,0,0,13.467l4.867-3.767" transform="translate(0 -63.118)" fill="#fbbc05"/>
  <path id="Path_168" data-name="Path 168" d="M27.325,5.8a8.313,8.313,0,0,1,5.8,2.233L37.358,3.9A14.412,14.412,0,0,0,27.325,0a14.989,14.989,0,0,0-13.4,8.267l4.85,3.767A9.067,9.067,0,0,1,27.325,5.8" transform="translate(-12.325)" fill="#eb4335"/>
</svg>
