<svg xmlns="http://www.w3.org/2000/svg" width="16.691" height="18.095" viewBox="0 0 16.691 18.095">
  <path id="Icon_ionic-ios-thumbs-up" data-name="Icon ionic-ios-thumbs-up" d="M20.479,18.2a1.765,1.765,0,0,0,.726-1.366,1.909,1.909,0,0,0-.474-1.265c-.026-.052-.048-.1-.07-.148l-.009-.048a.568.568,0,0,1,.087-.435,1.906,1.906,0,0,0,.252-1.118,1.321,1.321,0,0,0-.422-1.009.829.829,0,0,1-.178-.8,1.677,1.677,0,0,0-.357-1.644c-.457-.513-.883-.574-2.018-.509-.783.048-2.414.3-3.488.47-.439.07-.822.13-.939.139-.552.057-.661,0-.713-.213a1.41,1.41,0,0,1,.213-.565,9.326,9.326,0,0,0,.631-1.557A5.463,5.463,0,0,0,13.6,4.213a1.421,1.421,0,0,0-1.144-.831,1.73,1.73,0,0,0-1.213.344c-.148.174-.1.5-.27,1.165a12.68,12.68,0,0,1-.522,1.826A12.5,12.5,0,0,1,7.976,9.344c-.178.157-.331.291-.439.4a8.964,8.964,0,0,0-1.109,1.422,7.57,7.57,0,0,1-.6.8,1.571,1.571,0,0,1-.97.474.349.349,0,0,0-.348.348v6.936a.36.36,0,0,0,.361.361,6.853,6.853,0,0,1,2.888.513,7.515,7.515,0,0,0,2.018.526,41.771,41.771,0,0,0,4.9.352,21.672,21.672,0,0,0,2.461-.17c1.348-.157,2.792-.47,3.27-1.609a1.228,1.228,0,0,0-.022-1.031.342.342,0,0,1-.035-.113A.368.368,0,0,1,20.479,18.2Z" transform="translate(-4.514 -3.382)" fill="#427cdf"/>
</svg>
