<svg xmlns="http://www.w3.org/2000/svg" width="16" height="16" viewBox="0 0 16 16">
  <path id="Icon_metro-my-location" data-name="Icon metro-my-location" d="M11.856,8.947a2.909,2.909,0,1,0,2.909,2.909A2.908,2.908,0,0,0,11.856,8.947Zm6.5,2.182a6.541,6.541,0,0,0-5.775-5.775v-1.5H11.129v1.5a6.541,6.541,0,0,0-5.775,5.775h-1.5v1.455h1.5a6.541,6.541,0,0,0,5.775,5.775v1.5h1.455v-1.5a6.541,6.541,0,0,0,5.775-5.775h1.5V11.129h-1.5Zm-6.5,5.818a5.091,5.091,0,1,1,5.091-5.091A5.092,5.092,0,0,1,11.856,16.947Z" transform="translate(-3.856 -3.856)" fill="#666"/>
</svg>
