<svg xmlns="http://www.w3.org/2000/svg" width="18.095" height="18.095" viewBox="0 0 18.095 18.095">
  <path id="Icon_material-tag-faces" data-name="Icon material-tag-faces" d="M12.039,3A9.048,9.048,0,1,0,21.1,12.048,9.043,9.043,0,0,0,12.039,3Zm.009,16.286a7.238,7.238,0,1,1,7.238-7.238A7.236,7.236,0,0,1,12.048,19.286Zm3.167-8.143a1.357,1.357,0,1,0-1.357-1.357A1.355,1.355,0,0,0,15.214,11.143Zm-6.333,0A1.357,1.357,0,1,0,7.524,9.786,1.355,1.355,0,0,0,8.881,11.143Zm3.167,5.881a4.973,4.973,0,0,0,4.623-3.167H7.424A4.973,4.973,0,0,0,12.048,17.024Z" transform="translate(-3 -3)" fill="#ff9537"/>
</svg>
