<svg xmlns="http://www.w3.org/2000/svg" width="26.667" height="16" viewBox="0 0 26.667 16">
  <path id="Icon_awesome-money-bill-alt" data-name="Icon awesome-money-bill-alt" d="M14.667,13.833H14V10.167a.333.333,0,0,0-.333-.333H13.1a1,1,0,0,0-.555.168l-.639.426a.333.333,0,0,0-.092.462l.37.555a.333.333,0,0,0,.462.092l.02-.013v2.31H12a.333.333,0,0,0-.333.333v.667a.333.333,0,0,0,.333.333h2.667A.333.333,0,0,0,15,14.833v-.667A.333.333,0,0,0,14.667,13.833ZM25.333,4.5h-24A1.333,1.333,0,0,0,0,5.833V19.167A1.333,1.333,0,0,0,1.333,20.5h24a1.333,1.333,0,0,0,1.333-1.333V5.833A1.333,1.333,0,0,0,25.333,4.5ZM2,18.5V15.833A2.666,2.666,0,0,1,4.667,18.5ZM2,9.167V6.5H4.667A2.666,2.666,0,0,1,2,9.167Zm11.333,8c-2.209,0-4-2.09-4-4.667s1.791-4.667,4-4.667,4,2.089,4,4.667S15.542,17.167,13.333,17.167ZM24.667,18.5H22a2.666,2.666,0,0,1,2.667-2.667Zm0-9.333A2.666,2.666,0,0,1,22,6.5h2.667Z" transform="translate(0 -4.5)" fill="#888"/>
</svg>
