<svg xmlns="http://www.w3.org/2000/svg" width="28.533" height="16" viewBox="0 0 28.533 16">
  <g id="logistics-delivery-truck-in-movement" transform="translate(0 -134.412)">
    <g id="Group_307" data-name="Group 307" transform="translate(0 134.412)">
      <path id="Path_162" data-name="Path 162" d="M10.572,145.645a2.383,2.383,0,1,0,2.381,2.385A2.382,2.382,0,0,0,10.572,145.645Zm0,3.576a1.191,1.191,0,1,1,1.191-1.191A1.192,1.192,0,0,1,10.572,149.221Zm17.961-5.338v2.543a1.149,1.149,0,0,1-1.149,1.149H26.156a3.152,3.152,0,0,0-6.237,0H13.69a3.149,3.149,0,0,0-6.233,0H5.918a1.149,1.149,0,0,1-1.149-1.149v-2.543Zm-5.495,1.762a2.383,2.383,0,1,0,2.381,2.385A2.386,2.386,0,0,0,23.039,145.645Zm0,3.576a1.191,1.191,0,1,1,1.191-1.191A1.192,1.192,0,0,1,23.039,149.221Zm5.042-7.9-4.514-4.464a1.534,1.534,0,0,0-1.076-.444H20.213v-.854a1.147,1.147,0,0,0-1.149-1.149H5.917a1.149,1.149,0,0,0-1.149,1.149v.18l-4.661.537,8.259,1.076L0,138.184l8.337,1.185L0,140.092l4.769.9v2.257H28.533v-.839A1.539,1.539,0,0,0,28.081,141.323Zm-1.968.149H21.744a.18.18,0,0,1-.18-.18v-3.373a.18.18,0,0,1,.18-.18h.831a.194.194,0,0,1,.126.05l3.534,3.373A.18.18,0,0,1,26.113,141.472Z" transform="translate(0 -134.412)"/>
    </g>
  </g>
</svg>
