<svg xmlns="http://www.w3.org/2000/svg" width="25.42" height="16.52" viewBox="0 0 25.42 16.52">
  <g id="Icon_ionic-ios-people" data-name="Icon ionic-ios-people" transform="translate(-2.215 -7.748)">
    <path id="Path_19" data-name="Path 19" d="M19.406,20.458c-.54-.226-1.422-.238-1.813-.413a2.414,2.414,0,0,1-.839-.459,7.112,7.112,0,0,1-.14-1.614,2.623,2.623,0,0,0,.477-.793,10.221,10.221,0,0,0,.231-1.557s.318.159.444-.589a5.719,5.719,0,0,0,.256-1.461c-.058-.476-.28-.362-.28-.362a4.873,4.873,0,0,0,.28-2.117,3.125,3.125,0,1,0-6.234,0,4.949,4.949,0,0,0,.275,2.117s-.227-.113-.28.362a5.325,5.325,0,0,0,.256,1.461c.125.753.444.589.444.589a10.32,10.32,0,0,0,.231,1.557,2.623,2.623,0,0,0,.477.793,7.112,7.112,0,0,1-.14,1.614,2.319,2.319,0,0,1-.839.453c-.386.176-1.268.2-1.813.425a3.965,3.965,0,0,0-2.208,3.8H21.609A3.959,3.959,0,0,0,19.406,20.458Z" fill="#f5b60e"/>
    <path id="Path_20" data-name="Path 20" d="M9.844,17.478a6.411,6.411,0,0,0,2.348-.461c-1.09-1.164-.5-2.521-.724-3.789s-1.245-2.021-3.284-2.021H8.156c-1.969,0-3.03.753-3.255,2.021S5.3,16,4.184,17.017a5.988,5.988,0,0,0,2.355.411h0s.07.713-.07.832a2.172,2.172,0,0,1-.844.272c-.619.094-1.273.223-1.821.357a2.193,2.193,0,0,0-1.589,1.842H7.861a4.709,4.709,0,0,1,2.25-1.476A6.472,6.472,0,0,1,11.848,19s.267-.3-.612-.411a7.823,7.823,0,0,1-1.35-.332C9.752,18.146,9.844,17.478,9.844,17.478Z" fill="#f5b60e"/>
    <path id="Path_21" data-name="Path 21" d="M26.156,17.478a6.411,6.411,0,0,1-2.348-.461c1.09-1.164.5-2.521.724-3.789s1.245-2.021,3.284-2.021h.028c1.969,0,3.03.753,3.255,2.021s-.4,2.773.717,3.789a5.988,5.988,0,0,1-2.355.411h0s-.07.713.07.832a2.172,2.172,0,0,0,.844.272c.619.094,1.273.223,1.821.357a2.193,2.193,0,0,1,1.589,1.842H28.139a4.709,4.709,0,0,0-2.25-1.476A6.472,6.472,0,0,0,24.152,19s-.267-.3.612-.411a7.823,7.823,0,0,0,1.35-.332C26.248,18.146,26.156,17.478,26.156,17.478Z" transform="translate(-6.151)" fill="#f5b60e"/>
  </g>
</svg>
