<svg xmlns="http://www.w3.org/2000/svg" width="28.923" height="27" viewBox="0 0 28.923 27">
  <path id="Icon_ionic-ios-star" data-name="Icon ionic-ios-star" d="M28.151,12.029h-8.84L16.625,4.012a.973.973,0,0,0-1.827,0l-2.686,8.017h-8.9a.964.964,0,0,0-.962.962.707.707,0,0,0,.018.162.924.924,0,0,0,.4.679l7.266,5.12L7.148,27.059a.964.964,0,0,0,.331,1.082.93.93,0,0,0,.541.234,1.178,1.178,0,0,0,.6-.216L15.712,23.1,22.8,28.159a1.126,1.126,0,0,0,.6.216.863.863,0,0,0,.535-.234.953.953,0,0,0,.331-1.082l-2.788-8.107,7.206-5.168.174-.15a1.008,1.008,0,0,0,.312-.643A1.018,1.018,0,0,0,28.151,12.029Z" transform="translate(-1.25 -2.375)" fill="none" stroke="#888" stroke-width="2"/>
</svg>
