<svg xmlns="http://www.w3.org/2000/svg" width="18.188" height="16.888" viewBox="0 0 18.188 16.888">
  <path id="Icon_ionic-ios-star" data-name="Icon ionic-ios-star" d="M19.747,9.221H13.776L11.961,3.805a.658.658,0,0,0-1.234,0L8.912,9.221H2.9a.651.651,0,0,0-.65.65.477.477,0,0,0,.012.11.624.624,0,0,0,.272.459L7.442,13.9,5.559,19.374a.651.651,0,0,0,.223.731.628.628,0,0,0,.365.158.8.8,0,0,0,.406-.146l4.79-3.414,4.79,3.414a.761.761,0,0,0,.406.146.583.583,0,0,0,.361-.158.643.643,0,0,0,.223-.731L15.241,13.9l4.868-3.491.118-.1a.681.681,0,0,0,.211-.434A.688.688,0,0,0,19.747,9.221Z" transform="translate(-2.25 -3.375)" fill="#f5b60e"/>
</svg>
