<svg xmlns="http://www.w3.org/2000/svg" width="20.003" height="20" viewBox="0 0 20.003 20">
  <path id="Icon_awesome-upload" data-name="Icon awesome-upload" d="M11.564,15H8.439a.935.935,0,0,1-.938-.938V7.5H4.075a.78.78,0,0,1-.551-1.332L9.466.225a.757.757,0,0,1,1.067,0l5.946,5.946A.78.78,0,0,1,15.928,7.5H12.5v6.563A.935.935,0,0,1,11.564,15ZM20,14.692v4.376a.935.935,0,0,1-.938.938H.938A.935.935,0,0,1,0,19.068V14.692a.935.935,0,0,1,.938-.938H6.251v.313a2.189,2.189,0,0,0,2.188,2.188h3.125a2.189,2.189,0,0,0,2.188-2.188v-.313h5.313A.935.935,0,0,1,20,14.692ZM15.158,18.13a.781.781,0,1,0-.781.781A.784.784,0,0,0,15.158,18.13Zm2.5,0a.781.781,0,1,0-.781.781A.784.784,0,0,0,17.659,18.13Z" transform="translate(0 -0.005)" fill="#80858a"/>
</svg>
