<svg xmlns="http://www.w3.org/2000/svg" width="16" height="12.8" viewBox="0 0 16 12.8">
  <path id="Icon_awesome-user-plus" data-name="Icon awesome-user-plus" d="M15.6,5.2H14V3.6a.4.4,0,0,0-.4-.4h-.8a.4.4,0,0,0-.4.4V5.2H10.8a.4.4,0,0,0-.4.4v.8a.4.4,0,0,0,.4.4h1.6V8.4a.4.4,0,0,0,.4.4h.8a.4.4,0,0,0,.4-.4V6.8h1.6a.4.4,0,0,0,.4-.4V5.6A.4.4,0,0,0,15.6,5.2ZM5.6,6.4A3.2,3.2,0,1,0,2.4,3.2,3.2,3.2,0,0,0,5.6,6.4Zm2.24.8H7.422a4.352,4.352,0,0,1-3.645,0H3.36A3.361,3.361,0,0,0,0,10.56V11.6a1.2,1.2,0,0,0,1.2,1.2H10a1.2,1.2,0,0,0,1.2-1.2V10.56A3.361,3.361,0,0,0,7.84,7.2Z" fill="#fff"/>
</svg>
